<!DOCTYPE svg PUBLIC "-//W3C//DTD SVG 1.1//EN" "http://www.w3.org/Graphics/SVG/1.1/DTD/svg11.dtd">
<!-- Uploaded to: SVG Repo, www.svgrepo.com, Transformed by: SVG Repo Mixer Tools -->
<svg fill="#334155" version="1.1" id="Layer_1" xmlns="http://www.w3.org/2000/svg" xmlns:xlink="http://www.w3.org/1999/xlink" width="800px" height="800px" viewBox="0 0 260 228" enable-background="new 0 0 260 228" xml:space="preserve" stroke="#334155">
<g id="SVGRepo_bgCarrier" stroke-width="0"/>
<g id="SVGRepo_tracerCarrier" stroke-linecap="round" stroke-linejoin="round"/>
<g id="SVGRepo_iconCarrier"> <path d="M226,30H112V16c0-7.73-6.27-14-14-14H16C8.27,2,2,8.27,2,16v178c0,17.67,14.33,32,32,32h192c17.67,0,32-14.33,32-32V62 C258,44.33,243.67,30,226,30z M236,194c0,5.52-4.48,10-10,10H34c-5.52,0-10-4.48-10-10V62c0-5.52,4.48-10,10-10h192 c5.52,0,10,4.48,10,10V194z"/> </g>
</svg>